<svg xmlns="http://www.w3.org/2000/svg" xmlns:xlink="http://www.w3.org/1999/xlink" width="399" height="287" viewBox="0 0 399 287">
    <defs>
        <linearGradient id="a" x1="79.132%" x2="27.334%" y1="0%" y2="100%">
            <stop offset="0%" stop-color="#90DBFE"/>
            <stop offset="100%" stop-color="#3CC0FF"/>
        </linearGradient>
        <linearGradient id="b" x1="50%" x2="50%" y1="-45.539%" y2="100%">
            <stop offset="0%" stop-color="#84D7FF"/>
            <stop offset="100%" stop-color="#A5E1FF"/>
        </linearGradient>
        <linearGradient id="c" x1="85.614%" x2="36.785%" y1="-59.22%" y2="82.077%">
            <stop offset="0%" stop-color="#34B7F6"/>
            <stop offset="100%" stop-color="#0083C2"/>
        </linearGradient>
        <linearGradient id="d" x1="81.451%" x2="23.283%" y1="0%" y2="93.129%">
            <stop offset="0%" stop-color="#005882"/>
            <stop offset="100%" stop-color="#005781"/>
        </linearGradient>
        <path id="e" d="M78.56 53.967v44.17l-11.405 6.72v-14.31l-7.548 4.235v14.47l-12.493 7.292V73.019l11.735-6.987v16.62l8.306-5.093v-16.93l11.405-6.662zM96.373 43v44.175L84 94.582V50.717L96.373 43zm16.989 24.152v9.877l-12.373 7.162v-9.585l12.373-7.454zM113.373 33v29.558L101 69.71V40.717L113.373 33z"/>
        <filter id="f" width="104.5%" height="103.6%" x="-2.3%" y="-1.8%" filterUnits="objectBoundingBox">
            <feOffset dx="-3" dy="1" in="SourceAlpha" result="shadowOffsetInner1"/>
            <feComposite in="shadowOffsetInner1" in2="SourceAlpha" k2="-1" k3="1" operator="arithmetic" result="shadowInnerInner1"/>
            <feColorMatrix in="shadowInnerInner1" values="0 0 0 0 0 0 0 0 0 0.270588235 0 0 0 0 0.4 0 0 0 1 0"/>
        </filter>
    </defs>
    <g fill="none" fill-rule="evenodd">
        <g transform="matrix(-1 0 0 1 392 0)">
            <path fill="#E9F0F3" d="M143.748 83.212c3.907 2.256 8.904.914 11.162-2.996 2.258-3.91.92-8.909-2.986-11.164l159.675 92.188c-3.907-2.256-8.905-.914-11.162 2.996-2.258 3.91-.92 8.909 2.986 11.164L143.748 83.212zM123.666 108.75c4.037 2.33 9.201.944 11.534-3.096s.951-9.206-3.086-11.537l186.05 107.416c-4.038-2.331-9.202-.945-11.534 3.096-2.333 4.04-.952 9.205 3.085 11.536L123.666 108.75zM106.837 137.424c4.037 2.331 9.2.945 11.534-3.096 2.333-4.04.951-9.206-3.086-11.536l169.771 98.017c-4.037-2.33-9.2-.945-11.534 3.096-2.333 4.04-.951 9.206 3.086 11.537l-169.771-98.018zM73.227 4.735L94.4 16.959c4.037 2.331 5.419 7.496 3.086 11.537-2.333 4.04-7.497 5.427-11.534 3.096L64.779 19.367c-4.038-2.33-5.419-7.495-3.086-11.536 2.333-4.04 7.497-5.427 11.534-3.096zM13.143 82.7l21.173 12.225c4.037 2.33 5.419 7.496 3.086 11.537-2.333 4.04-7.497 5.426-11.534 3.096L4.694 97.333C.657 95.003-.724 89.837 1.61 85.796c2.333-4.04 7.496-5.426 11.534-3.096zM357.687 168.968l21.173 12.225c4.037 2.33 5.419 7.496 3.086 11.536-2.333 4.04-7.497 5.427-11.534 3.096l-21.173-12.224c-4.037-2.331-5.419-7.496-3.086-11.537 2.333-4.04 7.497-5.427 11.534-3.096zM67.467 71.268l7.516 4.34c4.037 2.33 5.418 7.495 3.085 11.536-2.333 4.04-7.497 5.427-11.534 3.096L59.02 85.9c-4.037-2.33-5.419-7.495-3.086-11.536 2.333-4.04 7.497-5.427 11.534-3.096zM328.982 260.016l7.516 4.339c4.037 2.33 5.419 7.496 3.086 11.537-2.333 4.04-7.497 5.426-11.534 3.096l-7.516-4.34c-4.037-2.33-5.418-7.496-3.085-11.536 2.333-4.04 7.496-5.427 11.533-3.096z"/>
            <path fill="#E9F0F3" d="M136.806 41.443l179.417 103.586c4.037 2.33 5.418 7.496 3.085 11.536-2.333 4.04-7.496 5.427-11.534 3.096L128.358 56.075c-4.037-2.33-5.418-7.496-3.085-11.536 2.332-4.041 7.496-5.427 11.533-3.096zM140.78 80.24l197.313 113.919c4.037 2.33 5.419 7.495 3.086 11.536-2.333 4.04-7.497 5.427-11.534 3.096L132.332 94.873c-4.037-2.331-5.418-7.496-3.085-11.537 2.333-4.04 7.496-5.427 11.534-3.096zM96.643 92.518l214.738 123.98c4.037 2.33 5.419 7.496 3.086 11.536-2.333 4.04-7.497 5.427-11.534 3.096L88.195 107.151c-4.038-2.33-5.419-7.496-3.086-11.537 2.333-4.04 7.497-5.426 11.534-3.096zM107.806 137.354L287.222 240.94c4.037 2.331 5.418 7.496 3.086 11.537-2.333 4.04-7.497 5.427-11.534 3.096L99.357 151.987c-4.037-2.331-5.418-7.496-3.085-11.537 2.333-4.04 7.497-5.427 11.534-3.096z"/>
            <ellipse cx="19.847" cy="126.535" fill="#006EA4" rx="1.903" ry="1.908" transform="rotate(30 19.847 126.535)"/>
            <ellipse cx="389.201" cy="217.687" fill="#006EA4" rx="1.903" ry="1.908" transform="rotate(30 389.201 217.687)"/>
            <ellipse cx="43.148" cy="36.144" fill="#006EA4" rx="1.903" ry="1.908" transform="rotate(30 43.148 36.144)"/>
            <ellipse cx="282.602" cy="183.935" fill="#006EA4" rx="1.903" ry="1.908" transform="rotate(30 282.602 183.935)"/>
            <ellipse cx="344.793" cy="233.671" fill="#006EA4" rx="1.903" ry="1.908" transform="rotate(30 344.793 233.671)"/>
            <ellipse cx="207.602" cy="102.507" fill="#006EA4" opacity=".728" rx="1.903" ry="1.908" transform="rotate(30 207.602 102.507)"/>
            <ellipse cx="202.817" cy="229.604" fill="#006EA4" opacity=".6" rx="1.903" ry="1.908" transform="rotate(30 202.817 229.604)"/>
            <ellipse cx="366.881" cy="263.96" fill="#006EA4" rx="1.903" ry="1.908" transform="rotate(30 366.88 263.96)"/>
            <ellipse cx="69.602" cy="117.11" fill="#006EA4" rx="1.903" ry="1.908" transform="rotate(30 69.602 117.11)"/>
            <ellipse cx="112.44" cy="30.876" fill="#006EA4" opacity=".5" rx="1.903" ry="1.908" transform="rotate(30 112.44 30.876)"/>
            <ellipse cx="349.274" cy="144.309" fill="#006EA4" rx="1.903" ry="1.908" transform="rotate(30 349.274 144.309)"/>
            <ellipse cx="41.602" cy="147.516" fill="#006EA4" rx="1.903" ry="1.908" transform="rotate(30 41.602 147.516)"/>
            <ellipse cx="306.23" cy="247.194" fill="#006EA4" rx="1.903" ry="1.908" transform="rotate(30 306.23 247.194)"/>
            <ellipse cx="81.753" cy="58.229" fill="#006EA4" opacity=".648" rx="1.903" ry="1.908" transform="rotate(30 81.753 58.229)"/>
            <ellipse cx="302.962" cy="111.604" fill="#006EA4" opacity=".648" rx="1.903" ry="1.908" transform="rotate(30 302.962 111.604)"/>
            <ellipse cx="194.537" cy="185.604" fill="#006EA4" opacity=".648" rx="1.903" ry="1.908" transform="rotate(30 194.537 185.604)"/>
            <ellipse cx="111.807" cy="174.604" fill="#006EA4" rx="1.903" ry="1.908" transform="rotate(30 111.807 174.604)"/>
            <ellipse cx="170.088" cy="33.604" fill="#006EA4" rx="1.903" ry="1.908" transform="rotate(30 170.088 33.604)"/>
        </g>
        <path fill="url(#a)" d="M99.809 1.603l26.11 13.113-8.669 6.06-14.022 4.519-.024 41.13a8.1 8.1 0 0 1-3.978 6.968l-66.31 39.2 1.84 23.747-25.39-12.915a8.1 8.1 0 0 1-5.701-7.741l.034-58.354a8.1 8.1 0 0 1 3.988-6.974L91.026 1.245a8.102 8.102 0 0 1 8.783.358z" transform="translate(120 52)"/>
        <path fill="url(#b)" d="M6.489 52.717l29.853-.033c-1.609 2.49-2.475 3.833-2.598 4.027-.903 1.422-1.378 2.848-1.423 4.277-.048 1.49.393 3.145 1.323 4.969.098.19.965 1.874 2.604 5.05l-29.763.404A846.579 846.579 0 0 0 3.66 65.87c-.911-1.673-1.328-3.192-1.25-4.558.153-1.864.674-3.444 1.563-4.741.12-.175.958-1.46 2.515-3.853z" transform="rotate(27 -28.926 337.966)"/>
        <path fill="url(#c)" d="M128.76 17.53a8.126 8.126 0 0 1 1.123 4.131l-.067 58.173a8.12 8.12 0 0 1-3.982 6.98l-6.778 4.01.001 14.596c0 1.817-1.004 2.403-3.011 1.758l-.204-.07-12.225-7.146-61.109 36.17a8.1 8.1 0 0 1-11.103-2.858 8.126 8.126 0 0 1-1.128-4.14l.067-58.33a8.12 8.12 0 0 1 3.992-6.984l83.325-49.162a8.1 8.1 0 0 1 11.1 2.873z" transform="translate(120 52)"/>
        <g transform="translate(120 52)">
            <use fill="url(#d)" xlink:href="#e"/>
            <use fill="#000" filter="url(#f)" xlink:href="#e"/>
        </g>
    </g>
</svg>
