<svg xmlns="http://www.w3.org/2000/svg" width="23" height="32" viewBox="0 0 23 32">
    <g fill="none" fill-rule="evenodd">
        <path fill="#FFF" d="M-427-1593h1441v2794H-427z" opacity=".9"/>
        <path fill="#0083C2" d="M-29-24h290v80H-29z"/>
        <path fill="#FFF" d="M14.765 5.482v26.295c-.53.06-1.064.11-1.6.155A18.37 18.37 0 0 1 11.61 32c-.505 0-1.045-.02-1.623-.046a17.018 17.018 0 0 1-1.76-.177V5.482H.266A14.173 14.173 0 0 1 .267 0H22.73c.18.888.27 1.786.27 2.704 0 .968-.09 1.897-.27 2.778h-7.965z"/>
    </g>
</svg>
