<svg xmlns="http://www.w3.org/2000/svg" width="103" height="26" viewBox="0 0 103 26">
    <path fill="#FFF" fill-rule="evenodd" d="M11.605 4.941v20.64c-.417.048-.836.088-1.257.123-.417.035-.827.053-1.223.053-.397 0-.82-.015-1.276-.036-.454-.02-.913-.069-1.383-.14V4.942H.21A11.11 11.11 0 0 1 .21.64h17.656c.14.697.212 1.402.212 2.122 0 .76-.071 1.489-.212 2.18h-6.26zm32 20.85c.839 0 1.665-.07 2.482-.21V.227a14.494 14.494 0 0 0-2.482-.21c-.839 0-1.656.069-2.445.21v25.356c.79.139 1.606.21 2.445.21zm8.32-9.851l4.615-8.294a16.287 16.287 0 0 0-2.587-.206c-.935 0-1.854.071-2.765.206l-4.473 8.537 5.244 9.399c.91.14 1.769.209 2.586.209.885 0 1.809-.07 2.766-.21l-5.386-9.641zM103 25.582v-11.41c0-2.384-.484-4.133-1.448-5.258-.97-1.12-2.476-1.682-4.53-1.682-1.307 0-2.38.319-3.234.956-.85.635-1.509 1.38-1.975 2.238-.79-2.13-2.598-3.194-5.42-3.194-.653 0-1.24.088-1.765.262a5.953 5.953 0 0 0-1.417.674c-.418.28-.78.593-1.08.936-.306.345-.55.694-.737 1.042a34.97 34.97 0 0 0-.209-1.302 12.378 12.378 0 0 0-.157-.693 2.063 2.063 0 0 0-.192-.505c-.329-.065-.64-.118-.944-.152a9.475 9.475 0 0 0-1.05-.054c-.396 0-.756.02-1.08.054-.331.034-.656.087-.984.152v17.936c.843.14 1.668.209 2.483.209.817 0 1.646-.07 2.484-.21v-9.398c0-.972.091-1.759.28-2.359.187-.602.435-1.067.753-1.406.314-.334.667-.56 1.062-.674a4.18 4.18 0 0 1 1.19-.172c.957 0 1.587.333 1.905 1 .317.676.472 1.635.472 2.884v10.126c.841.14 1.666.209 2.482.209.816 0 1.643-.07 2.485-.21v-9.676c0-.902.098-1.635.296-2.205.198-.566.454-1.005.77-1.316a2.445 2.445 0 0 1 1.05-.64c.383-.117.77-.172 1.17-.172.953 0 1.59.333 1.902 1 .316.676.474 1.635.474 2.884v10.126c.84.14 1.666.209 2.48.209.819 0 1.646-.07 2.484-.21zM26.243 14.69h-7.06c.115-1.177.476-2.092 1.085-2.741.606-.645 1.49-.97 2.654-.97 1.029 0 1.828.344 2.397 1.022.569.685.88 1.581.924 2.69zm4.688 1.108c0-1.2-.177-2.328-.524-3.38-.35-1.053-.869-1.958-1.56-2.724A7.368 7.368 0 0 0 26.35 7.89c-.98-.436-2.096-.658-3.357-.658-1.446 0-2.708.248-3.792.746a7.849 7.849 0 0 0-2.725 2.028 8.715 8.715 0 0 0-1.663 3.02c-.374 1.16-.56 2.39-.56 3.717 0 1.335.18 2.57.544 3.707.359 1.133.917 2.11 1.679 2.934.753.816 1.733 1.46 2.933 1.922 1.201.463 2.64.694 4.317.694 2.288 0 4.338-.348 6.154-1.042a8.404 8.404 0 0 0-.314-2.081 7.98 7.98 0 0 0-.664-1.664 13.83 13.83 0 0 1-2.36.64c-.827.153-1.64.226-2.43.226-1.446 0-2.611-.313-3.496-.935-.885-.622-1.376-1.63-1.467-3.018h11.605c.049-.257.087-.597.123-1.022.036-.429.054-.864.054-1.306zm38.09-1.57c0-1.83-1.497-3.311-3.339-3.311-1.843 0-3.344 1.481-3.342 3.31v4.738c0 1.83 1.499 3.314 3.342 3.314 1.845 0 3.339-1.484 3.339-3.314v-4.738zm4.767 6.07a8.163 8.163 0 0 1-1.595 2.948c-.72.837-1.62 1.495-2.71 1.965-1.085.47-2.36.707-3.816.707-1.46 0-2.73-.237-3.807-.707-1.073-.47-1.968-1.128-2.67-1.965-.71-.84-1.239-1.82-1.6-2.947-.357-1.124-.538-2.343-.538-3.651 0-1.31.181-2.535.539-3.687.36-1.146.89-2.141 1.6-2.981.7-.835 1.596-1.497 2.669-1.98 1.077-.48 2.347-.723 3.807-.723 1.455 0 2.73.243 3.817.723 1.09.483 1.989 1.145 2.709 1.98.716.84 1.25 1.835 1.595 2.98.345 1.153.52 2.378.52 3.688 0 1.308-.175 2.527-.52 3.65zm-35.501 5.288V.209C37.447.07 36.623 0 35.81 0c-.79 0-1.607.069-2.446.21v22.78c0 3.507 3.857 2.876 4.923 2.596z"/>
</svg>
